
<global>
amp_veltrack=0
ampeg_release=3.25
</global>

<group>
group_label=PP
lpc_hicc1=42
lpc_locc1=0

<region>
hikey=A3
hivel=127
lokey=G#3
lovel=1
lpc=EV++QzGKecRMbUZE7sacw1ICuUPWhkbDjBI1wnDf/EGpGIjCKFB3QfcLFkKqz0vC3YNnQsr0DUJHTIjCnoI3QuqTssFQir7BPgi/Qf/wekAeTgTBxglnvwzvHsAB8pxA
lpc_rms=-37.96
offset=10808
pitch_keycenter=G#3
sample=Basstrombone_half_PP_G#4.opus
tune=-18
</region>

<region>
hikey=A2
hivel=127
lokey=G#2
lovel=1
lpc=YQBqQ8kYHMQWR/tDXSsWw3ScJkMKlwrDzKQFwUnC50G0PsPBnEoMPzn0a0EBQsvBa4QyQufCrr8HohLCzOHwQdrAysANJIzBwPYJwH/FqkGeueu/0zw4QFGUocGwUzZB
lpc_rms=-42.88
offset=14798
pitch_keycenter=G#2
sample=Basstrombone_half_PP_G#3.opus
tune=-21
</region>

<region>
hikey=A1
hivel=127
lokey=G#1
lovel=1
lpc=QjYXQxR1q8MJ1ThDPmhUQa2iC0LW3OjBTbZJwZ+ijj+vURlAmlxgwOFhwb+SyMTAmE+bQJyhtkBWQyXAWkM9QM9APT/6/ZbAbo3bPwF34j9RAO8/n5E5wGm8AsHIWOtA
lpc_rms=-49.42
offset=13436
pitch_keycenter=G#1
sample=Basstrombone_half_PP_G#2.opus
tune=-16
</region>

<region>
hikey=G3
hivel=127
lokey=F#3
lovel=1
lpc=dwdmQ+XCE8RygdJDI26NwkmA30Jis5zCq63iwUO1b0GPV9/BnlLVwGCSvkFmLAjBQU3fQIRNhEEGiiHBo9tMQZ6FC8EwiMfBa4oEQfchm0EqtwHBqqNTwMtHgD9ivx4/
lpc_rms=-43.89
offset=11207
pitch_keycenter=F#3
sample=Basstrombone_half_PP_F#4.opus
tune=-45
</region>

<region>
hikey=G2
hivel=127
lokey=F#2
lovel=1
lpc=lvMVQwi4w8OQ9JhDXtiowv0bs0IzXZDCZcayv1vHWkBTSgE/KnVdwNZd5T/1dSTBbCxkQe7vtkAW73jBsd+JQdXJuT62T6fB8evpQCuTAUHnwlE+ei6KwN7+XcBfRmRA
lpc_rms=-47.49
offset=13158
pitch_keycenter=F#2
sample=Basstrombone_half_PP_F#3.opus
tune=-43
</region>

<region>
hikey=G1
hivel=127
lokey=F#1
lovel=1
lpc=jiXDQhqYVcM8HttCSVI1QYJVXEHlUCfBsOPVwFiCDD+CQM8/AUwuwDOCr8AMJtG+Q9sQQNtwekCu2vc/29CqPbHAuL+zcATAbDhIv5Qk7D41aNo/5W8GP8jtMMAdTss/
lpc_rms=-50.41
offset=12983
pitch_keycenter=F#1
sample=Basstrombone_half_PP_F#2.opus
tune=-13
</region>

<region>
hikey=F3
hivel=127
lokey=E3
lovel=1
lpc=dfFAQ2P8wMOwwQJDOAZUQt4SMkIpQ5hAk3CLwatY8sBp11/B/xxHwdRDyL53ZBu/oO7BQMV6JEFTvDY/vIkOQMG1UECncdrABICbwPNUGb+sHnq/hVU7PyGU2EBMWFHA
lpc_rms=-43.31
offset=11896
pitch_keycenter=E3
sample=Basstrombone_half_PP_E4.opus
tune=-20
</region>

<region>
hikey=F2
hivel=127
lokey=E2
lovel=1
lpc=UnkDQ1kppsOsVXBD8I4JwmT//UHrFhfCNcn4v3j0UkG35B/BrQahwNjlS8DxRhlA9Y6zQBPXH0BlYow+bJS2PyS3UcCGpRjAAvZ+P3PuE0An3Fk/zcTIv1N+oMBXCIpA
lpc_rms=-48.03
offset=11207
pitch_keycenter=E2
sample=Basstrombone_half_PP_E3.opus
tune=-13
</region>

<region>
hikey=F1
hivel=127
lokey=A#0
lovel=1
lpc=b6rIQjVxc8MgPCVDZNOlwT8E3EGOKgLC6GZSQD/OFEBxnclA/30SwRSDr8AyhQg/bWaiQKitJkDa9Fs/1VgjPX/IpL/yIDnABCwaQK5KB8AaSk1AXfkRv0F1OMBXQO8/
lpc_rms=-52.33
offset=13833
pitch_keycenter=E1
sample=Basstrombone_half_PP_E2.opus
tune=-20
</region>

<region>
hikey=D#3
hivel=127
lokey=D3
lovel=1
lpc=B+NcQ1lLCcTZ4rFDrJLZwaLixkKDxo7Cono8wjFWj0F+li3ASv9KwZsNG0GLwlHBXT+kQSGqlkGDb1PBsTYkQDYmED89RaTBstJLvrtsGEHa2wFArAEJQNxDlD8NRVrA
lpc_rms=-44.26
offset=11714
pitch_keycenter=D3
sample=Basstrombone_half_PP_D4.opus
tune=-14
</region>

<region>
hikey=D#2
hivel=127
lokey=D2
lovel=1
lpc=O04WQ598usOjSHhDEGTEwGJAsUFZHg3CTYhXwXUGoUALq0BAoG72v4WCoMAQt0o9HNENQYnMikCQegLBmjyUv9k8kkD4SiTA9EkawOjeckBStzlAgnIBQNL9XcGNXwBB
lpc_rms=-47.34
offset=12843
pitch_keycenter=D2
sample=Basstrombone_half_PP_D3.opus
tune=-6
</region>

<region>
hikey=C#3
hivel=127
lokey=C3
lovel=1
lpc=eFo+QwNX2sPC6GJDNdEHQor6MkJr7NXBTNrhwe6nm73/VDjB+xUlwQuf6kDr4QVA3xkhQc5lEUG+mfPAIgNRP9RRmUCNsk/BXrYAwNUDJEGDzC+9JokTwK38ysBcRLJA
lpc_rms=-44.62
offset=11987
pitch_keycenter=C3
sample=Basstrombone_half_PP_C4.opus
tune=-9
</region>

<region>
hikey=C#2
hivel=127
lokey=C2
lovel=1
lpc=KycaQxShucOIE2VDXJ0zv5fAIEIxex7C7N4vwf5oC8GOUpdA8cc/wEFKnj+ncLA/LVvtQB4D4z/tQqnAFAC+P/0jjj93xcDARl//v1HTLkFB7Lm/D+0zwHhExsDyLKNA
lpc_rms=-49.22
offset=11627
pitch_keycenter=C2
sample=Basstrombone_half_PP_C3.opus
tune=-3
</region>

<region>
hikey=D#5
hivel=127
lokey=A#3
lovel=1
lpc=PW4NQ8mYlsOTYQ1DPBZJvrzhbkLRMN7ASk0Xwr553kCmCGrAW6XkwFEz+EBzmRTBgBDLQLqHdkGV6EnB5uRavyycGEEpUWnBEbiNwC0+cUFFSZg9alKFwPYKtr8hCaM/
lpc_rms=-45.16
offset=11122
pitch_keycenter=A#3
sample=Basstrombone_half_PP_A#4.opus
tune=+3
</region>

<region>
hikey=B2
hivel=127
lokey=A#2
lovel=1
lpc=GXb3QslVe8PD5ctCT3ZrQSIKC0J0gBHA6PyKwXH1oj/eqPK/rpXqwF2+m0CY9o3AS27Dv7t0tECVx0vAbHqpP2qGyUCtxpzAbKfTv09hzUAOROq/b6JQwF0/YcCC5n1A
lpc_rms=-49.94
offset=13953
pitch_keycenter=A#2
sample=Basstrombone_half_PP_A#3.opus
tune=-2
</region>

<region>
hikey=B1
hivel=127
lokey=A#1
lovel=1
lpc=X9AHQ8NCpMOWX2BDoYdawlISoEIc6UzC57WVwPDc/r/TC4FARSrlwK/Xh8AQMO4+8FRZQfgQhsBsd57APYTgQD5dmkAYsCzBK1RYP5EdQ0DEdLw/slZdwD2+QcBlWnxA
lpc_rms=-49.21
offset=15907
pitch_keycenter=A#1
sample=Basstrombone_half_PP_A#2.opus
tune=+2
</region>
</group>

<group>
group_label=MF
lpc_hicc1=84
lpc_locc1=43

<region>
hikey=A3
hivel=127
lokey=G#3
lovel=1
lpc=6VEcQ96C38MnushDbjumwllBtkDMQSvCqIxWwaqUmEGRwA1B2194wd2SrkHKH+/A8xdqwKN1TUHcFtHBA+H0QFsdA0EnbYg+cdMbwUquU0HPsHJAPI6CwRTGtUBh2To/
lpc_rms=-34.19
offset=10169
pitch_keycenter=G#3
sample=Basstrombone_half_MF_G#4.opus
tune=-18
</region>

<region>
hikey=A2
hivel=127
lokey=G#2
lovel=1
lpc=kAoAQ8UkssMX/5BDeKY0wNTBGsJO5jLCwTQCQULQk0HE4uI/swCSPxHVL8BSrGjABdyXv0Z4t0AVAJo+ReCfwEtG1b+JCI1AOrIhP3rEnj+hV1o/CIXswOO9lUCbyMC+
lpc_rms=-37.06
offset=12433
pitch_keycenter=G#2
sample=Basstrombone_half_MF_G#3.opus
tune=-15
</region>

<region>
hikey=A1
hivel=127
lokey=G#1
lovel=1
lpc=egALQ3XTxsOi0rhD7DgHw22j2UJa/eXCqkFyQQOTi0GbJNm/Jj2MwDfJLEBkItfAGoe6QZqcKcEvllLB+Z9JQTfeTsDSH1C/lcM3wCLi/z90R8VANS58wNo8e8A0LERA
lpc_rms=-43.81
offset=11848
pitch_keycenter=G#1
sample=Basstrombone_half_MF_G#2.opus
tune=-16
</region>

<region>
hikey=G3
hivel=127
lokey=F#3
lovel=1
lpc=Y5bMQoOVeMOzaBVDabHuQaXJw8AyyKrBwR9VwbHWiT+HsUBA/KT9P6hdqUC8Vi++gNgHwAHllj8eVR/Ar0Hbv30UeD8N8QtASEkBPym9977ZvLU+P4LTv5OAhz015SQ/
lpc_rms=-38.24
offset=9921
pitch_keycenter=F#3
sample=Basstrombone_half_MF_F#4.opus
tune=-29
</region>

<region>
hikey=G2
hivel=127
lokey=F#2
lovel=1
lpc=fhjSQuwGisO29klDZURTQags0sEmzNPBltnwv9KYqECAX/1AIMMfP9puwr9/IOi/6d2mPvjcqj+utHnAb+KxP3P5ZEB2kEm/fAXvv+jGtTzLnLs/Kbwwv05Asb6TZ1I+
lpc_rms=-38.95
offset=7161
pitch_keycenter=F#2
sample=Basstrombone_half_MF_F#3.opus
tune=-16
</region>

<region>
hikey=G1
hivel=127
lokey=F#1
lovel=1
lpc=kfWhQpGwTMO52RpD053uwfhaxkFts+vB3+crwcMdxkEpjrLAZ/Q7wXtUzUCGH4bAKHQCQf+4mT8w8CjBlX4uQR1mm8DfCvu/sTRUQImSc8BHE2ZABWoKQGG4wcBxajpA
lpc_rms=-45.56
offset=13526
pitch_keycenter=F#1
sample=Basstrombone_half_MF_F#2.opus
tune=+2
</region>

<region>
hikey=F3
hivel=127
lokey=E3
lovel=1
lpc=vxPaQuTWd8MZTvhCplEZQvXSJ0FH/q7B5ruJwd8k1r9pAGy8QftRQM7DyUAiiABAEJFPwPzipL90FLu/QIa+vVITOUBCHMQ/owUAwEUMwr84jcg99QCwPq8fVD/1SoS+
lpc_rms=-38.08
offset=10932
pitch_keycenter=E3
sample=Basstrombone_half_MF_E4.opus
tune=-16
</region>

<region>
hikey=F2
hivel=127
lokey=E2
lovel=1
lpc=dMGeQjAadMO4m4NDQXC2wnVReMGyBhnAfGAfQe277UA5f9zAPkGDPsjc4D8k6nbAz/vRP37LHEAX2wbAX+kEQCT+/b+ofaa/inQ0QANvJ78fvrm/2bUHQCCrir9uAa89
lpc_rms=-42.62
offset=11872
pitch_keycenter=E2
sample=Basstrombone_half_MF_E3.opus
tune=-11
</region>

<region>
hikey=F1
hivel=127
lokey=A#0
lovel=1
lpc=ItbRQssQkcPb7nlDA/tPwrwGikGxfiXC8fOuP5ZBYkGaUBrBqUVdP8TOYUHV7bnAey0kweoWRUEp9q3AVCoXwF/CGEBBfEc/ulGJP8WuRcDxjDhArDrSPu1rgMDaNhtA
lpc_rms=-46.25
offset=12012
pitch_keycenter=E1
sample=Basstrombone_half_MF_E2.opus
tune=-6
</region>

<region>
hikey=D#3
hivel=127
lokey=D3
lovel=1
lpc=FvGtQmECP8NPGa5CqpUSQhCxjECShUrBzxZRwZzoncB8jZo/9aOKQE1SgUDszRI/L1jAv+3q4r8yGY2/D1kRP63Foz/nFJA+jZFev5wAWr8cQtQ9RzqdPxQE+j+bbhXA
lpc_rms=-36.13
offset=13053
pitch_keycenter=D3
sample=Basstrombone_half_MF_D4.opus
tune=-14
</region>

<region>
hikey=D#2
hivel=127
lokey=D2
lovel=1
lpc=0yPaQgBmlcODNW1D0b2uQOt8HsJ69OjBFDcRwKczf0EdhDVBLfMfwDvT8sB6e0XA+MdyQAyagT8nnDY+10wBQHLe9r/WSz7AZ56/P4SO8j8yzhE9T1AqvvaTKsDI3v0/
lpc_rms=-40.42
offset=14073
pitch_keycenter=D2
sample=Basstrombone_half_MF_D3.opus
tune=+2
</region>

<region>
hikey=C#3
hivel=127
lokey=C3
lovel=1
lpc=uuDlQng8i8PWziNDz407QujIbcGFePvBg2OFwRWuc0CxfjdBS5zoQEilpj1q1Z7ApNZmwDHBvj36ddA/kZEBQO5bvT7Kie2+V0SRvzXqNL/Wa+Q/B+/kP3A1jMCeQQxA
lpc_rms=-35.77
offset=12377
pitch_keycenter=C3
sample=Basstrombone_half_MF_C4.opus
tune=-5
</region>

<region>
hikey=C#2
hivel=127
lokey=C2
lovel=1
lpc=8onjQgqzucPX5thDxTAowyDWA8JchRs/jpfHQbCEw0EifrbBYPBuwW1vEUHNR+5A0M+vQCEvGcExtyXBFqp5QS3AZkAm0lPBAAzyP9VA+0ALrwDB3XQKQXqh6cCBQx5A
lpc_rms=-40.72
offset=15723
pitch_keycenter=C2
sample=Basstrombone_half_MF_C3.opus
tune=+3
</region>

<region>
hikey=D#5
hivel=127
lokey=A#3
lovel=1
lpc=rWrKQmsZWsPJ88RC6OYAQjZBOUHdaT7BzTMawQoQgr+K8pXApgCpwBBrAz7rEJ9AokWKQG7GUEDwP8++2YmRwHrbrz/AsVdAL8KLwIfXScDoSNS+G2GwP4d29ECsDZvA
lpc_rms=-35.81
offset=10878
pitch_keycenter=A#3
sample=Basstrombone_half_MF_A#4.opus
</region>

<region>
hikey=B2
hivel=127
lokey=A#2
lovel=1
lpc=zaMKQ5xP3sO6ov5D+ZZ7w+lpAUNXJirDtXAJQ0W3tcKgJ4tCQsswwi9NBUJ7TxHBCtGZwd0gqkEGjIXBRo7oQKB4sz+H/CNBReXcwTS190EUujzB1Sx0wXNlnUFJzNLA
lpc_rms=-38.02
offset=6965
pitch_keycenter=A#2
sample=Basstrombone_half_MF_A#3.opus
tune=-4
</region>

<region>
hikey=B1
hivel=127
lokey=A#1
lovel=1
lpc=KdrGQkM7esMsviZDnwSdQSU0EcEPXdvBck5IwZEwxEAP+gVBbWTAP7dk7T9L602/tvmMwLKmA8AURb4/rwyBQAE2u70Ne8Y+BtBIvVo1IMCHOKe/NP+LPmOoTkA/zq2/
lpc_rms=-41.39
offset=13043
pitch_keycenter=A#1
sample=Basstrombone_half_MF_A#2.opus
tune=+4
</region>
</group>

<group>
group_label=FF
lpc_hicc1=127
lpc_locc1=85

<region>
hikey=A3
hivel=127
lokey=G#3
lovel=1
lpc=g1SXQRJ4cMLuobZCCYrBwp7arkLmEI7CpFdRQsocFcJ40dhByUiewSouSkEw0X3AhbMQwJPyEUAQnCY/kPqCPrdDwsCIYEhBhyt6wR0vaEGV/xXBsmpEQMqbIz8SEDW/
lpc_rms=-29.22
offset=513
pitch_keycenter=G#3
sample=Basstrombone_half_FF_G#4.opus
tune=-2
</region>

<region>
hikey=A2
hivel=127
lokey=G#2
lovel=1
lpc=EKCiQZ3cbMJbo5lCNrOCwondNkLIB9vBonxXQREBncAUQp0/wqRPvqXpNT1HKuG+sehRPzP/175wgxa/OtjEP9yX4r8ZmpQ/Tk2jPuwWhL4DvJ+/QTXmPwpgrr+r9BQ/
lpc_rms=-31.39
offset=1736
pitch_keycenter=G#2
sample=Basstrombone_half_FF_G#3.opus
tune=+9
</region>

<region>
hikey=A1
hivel=127
lokey=G#1
lovel=1
lpc=i8DXQBaOa8HeS2tBsTU+wZaoHkGD0u7AoD6tQBiNbMAgniVA86Xkv/Tqgz8jIb6+Kzsdvjw6Dz+olm2/Ov6pP1Tls79pk78/YK2bv5kQUz/nLAO/m0OsPrlKhb04Kze9
lpc_rms=-33.46
offset=2126
pitch_keycenter=G#1
sample=Basstrombone_half_FF_G#2.opus
tune=+3
</region>

<region>
hikey=G3
hivel=127
lokey=F#3
lovel=1
lpc=St63QSYVisKTrrpC9smkwnq5aUI6IgvC2Kp2QRu7z7+8OIfA/eVGQFg1CD5taAPAOQ0iQL/p17/zbXi+/ZAiQIabkcA0ppdAtG/xv8HADr18yay/JUA9QFZbHcCY04E/
lpc_rms=-29.22
offset=861
pitch_keycenter=F#3
sample=Basstrombone_half_FF_F#4.opus
tune=-4
</region>

<region>
hikey=G2
hivel=127
lokey=F#2
lovel=1
lpc=ZRA0Qe7f6MHBzgtCfd/7wZFs2kGLFrLBNoKKQYGQU8EjjSBB0hjzwBRNs0C6qm3A20QRQBBuir/W7aW+vc6aP1eigL/LLTQ/VXO8vr+JvD6WEQu/9f/FPjV/z73Smhg+
lpc_rms=-31.82
offset=1057
pitch_keycenter=F#2
sample=Basstrombone_half_FF_F#3.opus
tune=-9
</region>

<region>
hikey=G1
hivel=127
lokey=F#1
lovel=1
lpc=sdouQazN3sHoCgFCq37ewSZRvEHET5bByCRcQa+9FcHMCsVA1TV4wDQc3z/UuGQ+A8e1vzkuC0BkhzXAVV9ZQOaeR8CIuQlArrJzvwSTF7yksgU+5N/APv5RCb+W0JE+
lpc_rms=-34.36
offset=1645
pitch_keycenter=F#1
sample=Basstrombone_half_FF_F#2.opus
tune=+4
</region>

<region>
hikey=F3
hivel=127
lokey=E3
lovel=1
lpc=Dk6HQclGT8IRSZhCeI2fwlnMkELkT3HC2Xs+QhPkEMJFn9xBDbGlwQmcY0GT2RXBkXLNQBGyi8BKhRlADt7LvbQo+L8EnFdApdAqwBg9Xz+dwFm/ur0RQIntAMBa1Rk/
lpc_rms=-30.94
offset=962
pitch_keycenter=E3
sample=Basstrombone_half_FF_E4.opus
tune=+4
</region>

<region>
hikey=F2
hivel=127
lokey=E2
lovel=1
lpc=cKExQf/c8cFo7RxCFP8WwiIUBUKw19nBf8alQQrYacFmLyVB9gz5wGqNvEAnVIbA8mwzQDNh07+wvrY+MaNwP3zIe79foCW+U1KuPy91+L8NOeo/Qk+Cv+HmJj5lzjE+
lpc_rms=-34.61
offset=675
pitch_keycenter=E2
sample=Basstrombone_half_FF_E3.opus
tune=-1
</region>

<region>
hikey=F1
hivel=127
lokey=A#0
lovel=1
lpc=fC5PQezOEMIbdj5Ccvw1wtHyHUI06v7BQ1a/QVFihcEm/S1BG9bWwLEzcEDzLOG/c/8WPzDg6zyLtGK+FYGDvv2nuz+MvwHAfL7GP1Zu2750NK6+w8P9PivSn77jjOs9
lpc_rms=-37.42
offset=1802
pitch_keycenter=E1
sample=Basstrombone_half_FF_E2.opus
</region>

<region>
hikey=D#3
hivel=127
lokey=D3
lovel=1
lpc=VVSoQWPigMIrFLRC7AWswlLJkELqtWXCASMnQjoe0sE/pVtBM2PJwFB58D+C6f69FRuyP7Z727/4OqC975aqP5NeGb9vugm/8mp/P8/ZE8CFDJhAeLS+wIrLiUB9u6+/
lpc_rms=-29.57
offset=1000
pitch_keycenter=D3
sample=Basstrombone_half_FF_D4.opus
tune=+8
</region>

<region>
hikey=D#2
hivel=127
lokey=D2
lovel=1
lpc=Us7UQI0LZcH8HFxBy+sswa2gEEHy09bAkyKUQPEjR8ASCPQ/T5Y8v8U+Dr5gxt0+K80av34xQz9zQ16/alKIP0+JRL8TnYU+i1I9Paf3yb0u0xQ+ro5Kvjywqj5Gnmu+
lpc_rms=-35.31
offset=904
pitch_keycenter=D2
sample=Basstrombone_half_FF_D3.opus
tune=+1
</region>

<region>
hikey=C#3
hivel=127
lokey=C3
lovel=1
lpc=xGKYQReCaMKg06dC4netwho2oEJZkYnC205aQkjsIcJZXupB2OqowVJ9bEEXFCfBcPr8QOpezcDbVZxA+UIGwJnyPb9lmBNAEWgYwE1/qj98SYm/G3vxP7ZFsL/qT+8+
lpc_rms=-30.61
offset=1740
pitch_keycenter=C3
sample=Basstrombone_half_FF_C4.opus
tune=+17
</region>

<region>
hikey=C#2
hivel=127
lokey=C2
lovel=1
lpc=vfzbQGhIZ8H9l1dB0WMlwY11B0GPacjAwhOUQFS9TcAwQA5AKeXKv9/7Yz8C2K++tOZFPWuubT6tXiq/M6dxP/KzDL9APr8+uSrJvuhLjj71hh2+nkRXPmrpJr7rni0+
lpc_rms=-34.17
offset=1692
pitch_keycenter=C2
sample=Basstrombone_half_FF_C3.opus
tune=+7
</region>

<region>
hikey=D#5
hivel=127
lokey=A#3
lovel=1
lpc=KCSnQWW6e8L2BrZC71u8wuWxqUKJI47CV2xmQnDtN8K4xQhCRFaowWm8MUGwKaDA5Hjgv89N50D+c+PAj4bVQBUDKcEzyHtBD4KMwUDDbUH0FxHBlV2BQMHOx79oUig/
lpc_rms=-26.63
offset=337
pitch_keycenter=A#3
sample=Basstrombone_half_FF_A#4.opus
tune=+11
</region>

<region>
hikey=B2
hivel=127
lokey=A#2
lovel=1
lpc=LmR+Qf42PcIC9oBCnn1qwgAGM0KUgfXBoUCYQZ3INcEZKstAToIiwK3UzT4OU2I/9MnrvzM0JECqonjA8geqQAHdp8CsV11AbW54v7ciCb+r520/xQalvn95V77eMjw+
lpc_rms=-32.36
offset=990
pitch_keycenter=A#2
sample=Basstrombone_half_FF_A#3.opus
tune=+10
</region>

<region>
hikey=B1
hivel=127
lokey=A#1
lovel=1
lpc=ne1xQUkcL8JwHW1CeNBjwlExRkIdiCTCDQYEQie5zMEXXZlBlKtbwRlyEEH7QJ/Aob/kPzksXD6rLea/YRRbQBN2dcBU0mJAq6sswOI80T+O4GW/FyuXP2zIqr9JIyY/
lpc_rms=-32.33
offset=556
pitch_keycenter=A#1
sample=Basstrombone_half_FF_A#2.opus
tune=+7
</region>
</group>